<svg viewBox="0 0 106 44" xmlns="http://www.w3.org/2000/svg" fill-rule="evenodd" clip-rule="evenodd" stroke-linejoin="round" stroke-miterlimit="1.414">
  <g fill="#939da7" fill-rule="nonzero">
    <path d="M63.16 34.515h7.3c-.268-1.877-1.52-3.278-3.635-3.278-1.996 0-3.308 1.34-3.665 3.278zm10.58 2.593H63.1c0 2.354 1.37 4.142 3.725 4.142 1.67 0 3.19-.954 3.934-2.533l2.65 1.043c-1.52 2.95-3.277 4.232-6.585 4.232-4.947 0-7.003-4.172-7.003-7.748 0-3.577 2.056-7.748 7.003-7.748 4.798 0 6.914 3.903 6.914 7.27v1.342zM78.927 36.244c0 1.37.357 2.563 1.073 3.546.745.983 1.758 1.46 3.04 1.46 1.28 0 2.294-.477 3.01-1.46.744-.983 1.102-2.175 1.102-3.546 0-1.37-.358-2.534-1.103-3.517-.716-.983-1.73-1.49-3.01-1.49-1.282 0-2.295.507-3.04 1.49-.716.983-1.073 2.146-1.073 3.517zm-3.278 0c0-2.176.654-4.023 1.996-5.514 1.34-1.49 3.158-2.234 5.393-2.234 2.234 0 4.022.745 5.363 2.234 1.34 1.49 2.027 3.338 2.027 5.514 0 2.175-.686 4.023-2.027 5.513-1.34 1.49-3.13 2.235-5.364 2.235-2.236 0-4.054-.745-5.394-2.235-1.342-1.49-1.997-3.338-1.997-5.513zM93.052 28.734h3.1v2.563c1.072-1.788 2.86-2.8 4.856-2.8 2.653 0 4.41 1.638 4.41 4.5v10.756h-3.1V33.98c0-1.82-.773-2.743-2.323-2.743-1.043 0-1.937.596-2.712 1.76-.745 1.16-1.132 2.71-1.132 4.677v6.08h-3.098v-15.02zM53.737 23.923V37.91L45.77 23.924h-3.516v19.83h3.278v-13.93l7.965 13.932v-.008.006h3.518v-19.83h-3.278zM.18 33.185l22.667 10.57V24.728L.18 14.16v19.025zm34-13.74l-22.666 10.57V10.987L34.18.418v19.026z"/>
  </g>
</svg>
